%TF.GenerationSoftware,KiCad,Pcbnew,7.0.7*%
%TF.CreationDate,2023-09-30T22:32:59+02:00*%
%TF.ProjectId,dizzy40,64697a7a-7934-4302-9e6b-696361645f70,rev?*%
%TF.SameCoordinates,Original*%
%TF.FileFunction,Soldermask,Top*%
%TF.FilePolarity,Negative*%
%FSLAX46Y46*%
G04 Gerber Fmt 4.6, Leading zero omitted, Abs format (unit mm)*
G04 Created by KiCad (PCBNEW 7.0.7) date 2023-09-30 22:32:59*
%MOMM*%
%LPD*%
G01*
G04 APERTURE LIST*
%ADD10C,1.750000*%
%ADD11C,3.987800*%
%ADD12C,4.000000*%
%ADD13C,3.048000*%
%ADD14C,2.300000*%
%ADD15R,1.700000X1.700000*%
%ADD16O,1.700000X1.700000*%
%ADD17R,2.000000X2.000000*%
%ADD18C,2.000000*%
%ADD19R,2.000000X3.200000*%
%ADD20R,1.800000X3.000000*%
%ADD21C,0.650000*%
%ADD22O,1.000000X1.600000*%
%ADD23O,1.000000X2.100000*%
G04 APERTURE END LIST*
%TO.C,REF\u002A\u002A*%
G36*
X80090409Y-121599117D02*
G01*
X79985757Y-121599117D01*
X79985757Y-121075863D01*
X80090409Y-121075863D01*
X80090409Y-121599117D01*
G37*
G36*
X80195060Y-121075863D02*
G01*
X80090409Y-121075863D01*
X80090409Y-120971212D01*
X80195060Y-120971212D01*
X80195060Y-121075863D01*
G37*
G36*
X80195060Y-121808424D02*
G01*
X80090409Y-121808424D01*
X80090409Y-121599121D01*
X80195060Y-121599121D01*
X80195060Y-121808424D01*
G37*
G36*
X80299712Y-120971212D02*
G01*
X80195060Y-120971212D01*
X80195060Y-120866560D01*
X80299712Y-120866560D01*
X80299712Y-120971212D01*
G37*
G36*
X80299712Y-121913075D02*
G01*
X80195060Y-121913075D01*
X80195060Y-121808424D01*
X80299712Y-121808424D01*
X80299712Y-121913075D01*
G37*
G36*
X80718317Y-122017723D02*
G01*
X80299712Y-122017723D01*
X80299712Y-121913072D01*
X80718317Y-121913072D01*
X80718317Y-122017723D01*
G37*
G36*
X80822965Y-121913075D02*
G01*
X80718314Y-121913075D01*
X80718314Y-121808424D01*
X80822965Y-121808424D01*
X80822965Y-121913075D01*
G37*
G36*
X80927617Y-121808424D02*
G01*
X80822965Y-121808424D01*
X80822965Y-121703772D01*
X80927617Y-121703772D01*
X80927617Y-121808424D01*
G37*
G36*
X81136920Y-120971212D02*
G01*
X80927617Y-120971212D01*
X80927617Y-120866560D01*
X81136920Y-120866560D01*
X81136920Y-120971212D01*
G37*
G36*
X81450871Y-121494469D02*
G01*
X81346219Y-121494469D01*
X81346219Y-121180515D01*
X81450871Y-121180515D01*
X81450871Y-121494469D01*
G37*
G36*
X81660174Y-121599121D02*
G01*
X81450871Y-121599121D01*
X81450871Y-121494469D01*
X81660174Y-121494469D01*
X81660174Y-121599121D01*
G37*
G36*
X81346219Y-121180518D02*
G01*
X81241568Y-121180518D01*
X81241568Y-120866563D01*
X81136917Y-120866563D01*
X81136917Y-120761912D01*
X81346219Y-120761912D01*
X81346219Y-121180518D01*
G37*
G36*
X81764826Y-120552609D02*
G01*
X81660174Y-120552609D01*
X81660174Y-120657261D01*
X81555523Y-120657261D01*
X81555523Y-120971212D01*
X81660174Y-120971212D01*
X81660174Y-121494469D01*
X81450871Y-121494469D01*
X81450871Y-121180515D01*
X81346219Y-121180515D01*
X81346219Y-120761912D01*
X81136920Y-120761912D01*
X81136920Y-120866560D01*
X80927617Y-120866560D01*
X80927617Y-120657261D01*
X81032268Y-120657261D01*
X81032268Y-120552609D01*
X81346219Y-120552609D01*
X81346219Y-120447958D01*
X81555523Y-120447958D01*
X81555523Y-120343306D01*
X81764826Y-120343306D01*
X81764826Y-120552609D01*
G37*
G36*
X80718314Y-121075863D02*
G01*
X80404360Y-121075863D01*
X80404360Y-121180515D01*
X80299712Y-121180515D01*
X80299712Y-121494469D01*
X80404360Y-121494469D01*
X80404360Y-121703772D01*
X80613663Y-121703772D01*
X80613663Y-121599121D01*
X80718314Y-121599121D01*
X80718314Y-121389817D01*
X80927617Y-121389817D01*
X80927617Y-121703772D01*
X80822965Y-121703772D01*
X80822965Y-121808424D01*
X80718314Y-121808424D01*
X80718314Y-121913072D01*
X80299712Y-121913072D01*
X80299712Y-121808424D01*
X80195060Y-121808424D01*
X80195060Y-121599121D01*
X80090409Y-121599121D01*
X80090409Y-121075863D01*
X80195060Y-121075863D01*
X80195060Y-120971212D01*
X80299712Y-120971212D01*
X80299712Y-120866560D01*
X80718314Y-120866560D01*
X80718314Y-121075863D01*
G37*
G36*
X81974129Y-122645636D02*
G01*
X82183431Y-122645636D01*
X82183431Y-122959583D01*
X82078780Y-122959583D01*
X82078780Y-123064235D01*
X81974129Y-123064235D01*
X81974129Y-123378185D01*
X81869474Y-123378185D01*
X81869474Y-123482838D01*
X81450871Y-123482838D01*
X81450871Y-123587492D01*
X81346219Y-123587492D01*
X81346219Y-123692144D01*
X81241568Y-123692144D01*
X81241568Y-123796795D01*
X80718310Y-123796795D01*
X80718310Y-123692144D01*
X80509014Y-123692144D01*
X80509014Y-123587492D01*
X80613658Y-123587492D01*
X80613658Y-123482838D01*
X80822965Y-123482838D01*
X80822965Y-123378185D01*
X81032272Y-123378185D01*
X81032272Y-123273541D01*
X81241568Y-123273541D01*
X81241568Y-123168889D01*
X81346219Y-123168889D01*
X81346219Y-123064235D01*
X81450871Y-123064235D01*
X81450871Y-122959583D01*
X81660178Y-122959583D01*
X81660178Y-122854932D01*
X81764821Y-122854932D01*
X81764821Y-122750276D01*
X81869474Y-122750276D01*
X81869474Y-122540981D01*
X81974129Y-122540981D01*
X81974129Y-122645636D01*
G37*
G36*
X78939242Y-122436329D02*
G01*
X79148548Y-122436329D01*
X79148548Y-122645636D01*
X79253199Y-122645636D01*
X79253199Y-122854932D01*
X79357851Y-122854932D01*
X79357851Y-124006095D01*
X79253199Y-124006095D01*
X79253199Y-124110747D01*
X79148548Y-124110747D01*
X79148548Y-124215398D01*
X79043893Y-124215398D01*
X79043893Y-124320052D01*
X78939242Y-124320052D01*
X78939242Y-124424704D01*
X78206692Y-124424704D01*
X78206692Y-124320052D01*
X77997385Y-124320052D01*
X77997385Y-124215398D01*
X77892730Y-124215398D01*
X77892730Y-124110747D01*
X77788078Y-124110747D01*
X77788078Y-124006095D01*
X77578783Y-124006095D01*
X77578783Y-123901440D01*
X77474131Y-123901440D01*
X77474131Y-123692144D01*
X77369476Y-123692144D01*
X77369476Y-123587492D01*
X77264824Y-123587492D01*
X77264824Y-123378185D01*
X77369476Y-123378185D01*
X77369476Y-123273541D01*
X77578783Y-123273541D01*
X77578783Y-122540981D01*
X77683434Y-122540981D01*
X77683434Y-122436329D01*
X78206692Y-122436329D01*
X78206692Y-122540981D01*
X78311333Y-122540981D01*
X78311333Y-122645636D01*
X78520639Y-122645636D01*
X78520639Y-122540981D01*
X78625291Y-122540981D01*
X78625291Y-122436329D01*
X78729946Y-122436329D01*
X78729946Y-122331674D01*
X78939242Y-122331674D01*
X78939242Y-122436329D01*
G37*
G36*
X80509010Y-117622384D02*
G01*
X80718306Y-117622384D01*
X80718306Y-117727035D01*
X81450867Y-117727035D01*
X81450867Y-117622384D01*
X81660173Y-117622384D01*
X81660173Y-117517739D01*
X81974121Y-117517739D01*
X81974121Y-117936342D01*
X81869470Y-117936342D01*
X81869470Y-118040994D01*
X81764818Y-118040994D01*
X81764818Y-118250290D01*
X81660173Y-118250290D01*
X81660173Y-118354941D01*
X81555522Y-118354941D01*
X81555522Y-118459593D01*
X81450870Y-118459593D01*
X81450870Y-118564244D01*
X81346219Y-118564244D01*
X81346219Y-118668895D01*
X81241567Y-118668895D01*
X81241567Y-118773540D01*
X81136923Y-118773540D01*
X81136923Y-118878192D01*
X80927616Y-118878192D01*
X80927616Y-118982843D01*
X80613658Y-118982843D01*
X80613658Y-119087505D01*
X79567150Y-119087505D01*
X79567150Y-118982854D01*
X79462499Y-118982854D01*
X79462499Y-118773547D01*
X79567150Y-118773547D01*
X79567150Y-118564251D01*
X79671802Y-118564251D01*
X79671802Y-118354944D01*
X79776453Y-118354944D01*
X79776453Y-118040997D01*
X79881105Y-118040997D01*
X79881105Y-117936335D01*
X80299707Y-117936335D01*
X80299707Y-118040986D01*
X80509014Y-118040986D01*
X80509014Y-118145631D01*
X80613658Y-118145631D01*
X80613658Y-118040986D01*
X80509014Y-118040986D01*
X80509014Y-117936335D01*
X80299707Y-117936335D01*
X79881105Y-117936335D01*
X79881105Y-117622384D01*
X79985756Y-117622384D01*
X79985756Y-117517739D01*
X80509010Y-117517739D01*
X80509010Y-117622384D01*
G37*
G36*
X39323409Y-134146717D02*
G01*
X39218757Y-134146717D01*
X39218757Y-133623463D01*
X39323409Y-133623463D01*
X39323409Y-134146717D01*
G37*
G36*
X39428060Y-133623463D02*
G01*
X39323409Y-133623463D01*
X39323409Y-133518812D01*
X39428060Y-133518812D01*
X39428060Y-133623463D01*
G37*
G36*
X39428060Y-134356024D02*
G01*
X39323409Y-134356024D01*
X39323409Y-134146721D01*
X39428060Y-134146721D01*
X39428060Y-134356024D01*
G37*
G36*
X39532712Y-133518812D02*
G01*
X39428060Y-133518812D01*
X39428060Y-133414160D01*
X39532712Y-133414160D01*
X39532712Y-133518812D01*
G37*
G36*
X39532712Y-134460675D02*
G01*
X39428060Y-134460675D01*
X39428060Y-134356024D01*
X39532712Y-134356024D01*
X39532712Y-134460675D01*
G37*
G36*
X39951317Y-134565323D02*
G01*
X39532712Y-134565323D01*
X39532712Y-134460672D01*
X39951317Y-134460672D01*
X39951317Y-134565323D01*
G37*
G36*
X40055965Y-134460675D02*
G01*
X39951314Y-134460675D01*
X39951314Y-134356024D01*
X40055965Y-134356024D01*
X40055965Y-134460675D01*
G37*
G36*
X40160617Y-134356024D02*
G01*
X40055965Y-134356024D01*
X40055965Y-134251372D01*
X40160617Y-134251372D01*
X40160617Y-134356024D01*
G37*
G36*
X40369920Y-133518812D02*
G01*
X40160617Y-133518812D01*
X40160617Y-133414160D01*
X40369920Y-133414160D01*
X40369920Y-133518812D01*
G37*
G36*
X40683871Y-134042069D02*
G01*
X40579219Y-134042069D01*
X40579219Y-133728115D01*
X40683871Y-133728115D01*
X40683871Y-134042069D01*
G37*
G36*
X40893174Y-134146721D02*
G01*
X40683871Y-134146721D01*
X40683871Y-134042069D01*
X40893174Y-134042069D01*
X40893174Y-134146721D01*
G37*
G36*
X40579219Y-133728118D02*
G01*
X40474568Y-133728118D01*
X40474568Y-133414163D01*
X40369917Y-133414163D01*
X40369917Y-133309512D01*
X40579219Y-133309512D01*
X40579219Y-133728118D01*
G37*
G36*
X40997826Y-133100209D02*
G01*
X40893174Y-133100209D01*
X40893174Y-133204861D01*
X40788523Y-133204861D01*
X40788523Y-133518812D01*
X40893174Y-133518812D01*
X40893174Y-134042069D01*
X40683871Y-134042069D01*
X40683871Y-133728115D01*
X40579219Y-133728115D01*
X40579219Y-133309512D01*
X40369920Y-133309512D01*
X40369920Y-133414160D01*
X40160617Y-133414160D01*
X40160617Y-133204861D01*
X40265268Y-133204861D01*
X40265268Y-133100209D01*
X40579219Y-133100209D01*
X40579219Y-132995558D01*
X40788523Y-132995558D01*
X40788523Y-132890906D01*
X40997826Y-132890906D01*
X40997826Y-133100209D01*
G37*
G36*
X39951314Y-133623463D02*
G01*
X39637360Y-133623463D01*
X39637360Y-133728115D01*
X39532712Y-133728115D01*
X39532712Y-134042069D01*
X39637360Y-134042069D01*
X39637360Y-134251372D01*
X39846663Y-134251372D01*
X39846663Y-134146721D01*
X39951314Y-134146721D01*
X39951314Y-133937417D01*
X40160617Y-133937417D01*
X40160617Y-134251372D01*
X40055965Y-134251372D01*
X40055965Y-134356024D01*
X39951314Y-134356024D01*
X39951314Y-134460672D01*
X39532712Y-134460672D01*
X39532712Y-134356024D01*
X39428060Y-134356024D01*
X39428060Y-134146721D01*
X39323409Y-134146721D01*
X39323409Y-133623463D01*
X39428060Y-133623463D01*
X39428060Y-133518812D01*
X39532712Y-133518812D01*
X39532712Y-133414160D01*
X39951314Y-133414160D01*
X39951314Y-133623463D01*
G37*
G36*
X41207129Y-135193236D02*
G01*
X41416431Y-135193236D01*
X41416431Y-135507183D01*
X41311780Y-135507183D01*
X41311780Y-135611835D01*
X41207129Y-135611835D01*
X41207129Y-135925785D01*
X41102474Y-135925785D01*
X41102474Y-136030438D01*
X40683871Y-136030438D01*
X40683871Y-136135092D01*
X40579219Y-136135092D01*
X40579219Y-136239744D01*
X40474568Y-136239744D01*
X40474568Y-136344395D01*
X39951310Y-136344395D01*
X39951310Y-136239744D01*
X39742014Y-136239744D01*
X39742014Y-136135092D01*
X39846658Y-136135092D01*
X39846658Y-136030438D01*
X40055965Y-136030438D01*
X40055965Y-135925785D01*
X40265272Y-135925785D01*
X40265272Y-135821141D01*
X40474568Y-135821141D01*
X40474568Y-135716489D01*
X40579219Y-135716489D01*
X40579219Y-135611835D01*
X40683871Y-135611835D01*
X40683871Y-135507183D01*
X40893178Y-135507183D01*
X40893178Y-135402532D01*
X40997821Y-135402532D01*
X40997821Y-135297876D01*
X41102474Y-135297876D01*
X41102474Y-135088581D01*
X41207129Y-135088581D01*
X41207129Y-135193236D01*
G37*
G36*
X38172242Y-134983929D02*
G01*
X38381548Y-134983929D01*
X38381548Y-135193236D01*
X38486199Y-135193236D01*
X38486199Y-135402532D01*
X38590851Y-135402532D01*
X38590851Y-136553695D01*
X38486199Y-136553695D01*
X38486199Y-136658347D01*
X38381548Y-136658347D01*
X38381548Y-136762998D01*
X38276893Y-136762998D01*
X38276893Y-136867652D01*
X38172242Y-136867652D01*
X38172242Y-136972304D01*
X37439692Y-136972304D01*
X37439692Y-136867652D01*
X37230385Y-136867652D01*
X37230385Y-136762998D01*
X37125730Y-136762998D01*
X37125730Y-136658347D01*
X37021078Y-136658347D01*
X37021078Y-136553695D01*
X36811783Y-136553695D01*
X36811783Y-136449040D01*
X36707131Y-136449040D01*
X36707131Y-136239744D01*
X36602476Y-136239744D01*
X36602476Y-136135092D01*
X36497824Y-136135092D01*
X36497824Y-135925785D01*
X36602476Y-135925785D01*
X36602476Y-135821141D01*
X36811783Y-135821141D01*
X36811783Y-135088581D01*
X36916434Y-135088581D01*
X36916434Y-134983929D01*
X37439692Y-134983929D01*
X37439692Y-135088581D01*
X37544333Y-135088581D01*
X37544333Y-135193236D01*
X37753639Y-135193236D01*
X37753639Y-135088581D01*
X37858291Y-135088581D01*
X37858291Y-134983929D01*
X37962946Y-134983929D01*
X37962946Y-134879274D01*
X38172242Y-134879274D01*
X38172242Y-134983929D01*
G37*
G36*
X39742010Y-130169984D02*
G01*
X39951306Y-130169984D01*
X39951306Y-130274635D01*
X40683867Y-130274635D01*
X40683867Y-130169984D01*
X40893173Y-130169984D01*
X40893173Y-130065339D01*
X41207121Y-130065339D01*
X41207121Y-130483942D01*
X41102470Y-130483942D01*
X41102470Y-130588594D01*
X40997818Y-130588594D01*
X40997818Y-130797890D01*
X40893173Y-130797890D01*
X40893173Y-130902541D01*
X40788522Y-130902541D01*
X40788522Y-131007193D01*
X40683870Y-131007193D01*
X40683870Y-131111844D01*
X40579219Y-131111844D01*
X40579219Y-131216495D01*
X40474567Y-131216495D01*
X40474567Y-131321140D01*
X40369923Y-131321140D01*
X40369923Y-131425792D01*
X40160616Y-131425792D01*
X40160616Y-131530443D01*
X39846658Y-131530443D01*
X39846658Y-131635105D01*
X38800150Y-131635105D01*
X38800150Y-131530454D01*
X38695499Y-131530454D01*
X38695499Y-131321147D01*
X38800150Y-131321147D01*
X38800150Y-131111851D01*
X38904802Y-131111851D01*
X38904802Y-130902544D01*
X39009453Y-130902544D01*
X39009453Y-130588597D01*
X39114105Y-130588597D01*
X39114105Y-130483935D01*
X39532707Y-130483935D01*
X39532707Y-130588586D01*
X39742014Y-130588586D01*
X39742014Y-130693231D01*
X39846658Y-130693231D01*
X39846658Y-130588586D01*
X39742014Y-130588586D01*
X39742014Y-130483935D01*
X39532707Y-130483935D01*
X39114105Y-130483935D01*
X39114105Y-130169984D01*
X39218756Y-130169984D01*
X39218756Y-130065339D01*
X39742010Y-130065339D01*
X39742010Y-130169984D01*
G37*
G36*
X54766609Y-116823917D02*
G01*
X54661957Y-116823917D01*
X54661957Y-116300663D01*
X54766609Y-116300663D01*
X54766609Y-116823917D01*
G37*
G36*
X54871260Y-116300663D02*
G01*
X54766609Y-116300663D01*
X54766609Y-116196012D01*
X54871260Y-116196012D01*
X54871260Y-116300663D01*
G37*
G36*
X54871260Y-117033224D02*
G01*
X54766609Y-117033224D01*
X54766609Y-116823921D01*
X54871260Y-116823921D01*
X54871260Y-117033224D01*
G37*
G36*
X54975912Y-116196012D02*
G01*
X54871260Y-116196012D01*
X54871260Y-116091360D01*
X54975912Y-116091360D01*
X54975912Y-116196012D01*
G37*
G36*
X54975912Y-117137875D02*
G01*
X54871260Y-117137875D01*
X54871260Y-117033224D01*
X54975912Y-117033224D01*
X54975912Y-117137875D01*
G37*
G36*
X55394517Y-117242523D02*
G01*
X54975912Y-117242523D01*
X54975912Y-117137872D01*
X55394517Y-117137872D01*
X55394517Y-117242523D01*
G37*
G36*
X55499165Y-117137875D02*
G01*
X55394514Y-117137875D01*
X55394514Y-117033224D01*
X55499165Y-117033224D01*
X55499165Y-117137875D01*
G37*
G36*
X55603817Y-117033224D02*
G01*
X55499165Y-117033224D01*
X55499165Y-116928572D01*
X55603817Y-116928572D01*
X55603817Y-117033224D01*
G37*
G36*
X55813120Y-116196012D02*
G01*
X55603817Y-116196012D01*
X55603817Y-116091360D01*
X55813120Y-116091360D01*
X55813120Y-116196012D01*
G37*
G36*
X56127071Y-116719269D02*
G01*
X56022419Y-116719269D01*
X56022419Y-116405315D01*
X56127071Y-116405315D01*
X56127071Y-116719269D01*
G37*
G36*
X56336374Y-116823921D02*
G01*
X56127071Y-116823921D01*
X56127071Y-116719269D01*
X56336374Y-116719269D01*
X56336374Y-116823921D01*
G37*
G36*
X56022419Y-116405318D02*
G01*
X55917768Y-116405318D01*
X55917768Y-116091363D01*
X55813117Y-116091363D01*
X55813117Y-115986712D01*
X56022419Y-115986712D01*
X56022419Y-116405318D01*
G37*
G36*
X56441026Y-115777409D02*
G01*
X56336374Y-115777409D01*
X56336374Y-115882061D01*
X56231723Y-115882061D01*
X56231723Y-116196012D01*
X56336374Y-116196012D01*
X56336374Y-116719269D01*
X56127071Y-116719269D01*
X56127071Y-116405315D01*
X56022419Y-116405315D01*
X56022419Y-115986712D01*
X55813120Y-115986712D01*
X55813120Y-116091360D01*
X55603817Y-116091360D01*
X55603817Y-115882061D01*
X55708468Y-115882061D01*
X55708468Y-115777409D01*
X56022419Y-115777409D01*
X56022419Y-115672758D01*
X56231723Y-115672758D01*
X56231723Y-115568106D01*
X56441026Y-115568106D01*
X56441026Y-115777409D01*
G37*
G36*
X55394514Y-116300663D02*
G01*
X55080560Y-116300663D01*
X55080560Y-116405315D01*
X54975912Y-116405315D01*
X54975912Y-116719269D01*
X55080560Y-116719269D01*
X55080560Y-116928572D01*
X55289863Y-116928572D01*
X55289863Y-116823921D01*
X55394514Y-116823921D01*
X55394514Y-116614617D01*
X55603817Y-116614617D01*
X55603817Y-116928572D01*
X55499165Y-116928572D01*
X55499165Y-117033224D01*
X55394514Y-117033224D01*
X55394514Y-117137872D01*
X54975912Y-117137872D01*
X54975912Y-117033224D01*
X54871260Y-117033224D01*
X54871260Y-116823921D01*
X54766609Y-116823921D01*
X54766609Y-116300663D01*
X54871260Y-116300663D01*
X54871260Y-116196012D01*
X54975912Y-116196012D01*
X54975912Y-116091360D01*
X55394514Y-116091360D01*
X55394514Y-116300663D01*
G37*
G36*
X56650329Y-117870436D02*
G01*
X56859631Y-117870436D01*
X56859631Y-118184383D01*
X56754980Y-118184383D01*
X56754980Y-118289035D01*
X56650329Y-118289035D01*
X56650329Y-118602985D01*
X56545674Y-118602985D01*
X56545674Y-118707638D01*
X56127071Y-118707638D01*
X56127071Y-118812292D01*
X56022419Y-118812292D01*
X56022419Y-118916944D01*
X55917768Y-118916944D01*
X55917768Y-119021595D01*
X55394510Y-119021595D01*
X55394510Y-118916944D01*
X55185214Y-118916944D01*
X55185214Y-118812292D01*
X55289858Y-118812292D01*
X55289858Y-118707638D01*
X55499165Y-118707638D01*
X55499165Y-118602985D01*
X55708472Y-118602985D01*
X55708472Y-118498341D01*
X55917768Y-118498341D01*
X55917768Y-118393689D01*
X56022419Y-118393689D01*
X56022419Y-118289035D01*
X56127071Y-118289035D01*
X56127071Y-118184383D01*
X56336378Y-118184383D01*
X56336378Y-118079732D01*
X56441021Y-118079732D01*
X56441021Y-117975076D01*
X56545674Y-117975076D01*
X56545674Y-117765781D01*
X56650329Y-117765781D01*
X56650329Y-117870436D01*
G37*
G36*
X53615442Y-117661129D02*
G01*
X53824748Y-117661129D01*
X53824748Y-117870436D01*
X53929399Y-117870436D01*
X53929399Y-118079732D01*
X54034051Y-118079732D01*
X54034051Y-119230895D01*
X53929399Y-119230895D01*
X53929399Y-119335547D01*
X53824748Y-119335547D01*
X53824748Y-119440198D01*
X53720093Y-119440198D01*
X53720093Y-119544852D01*
X53615442Y-119544852D01*
X53615442Y-119649504D01*
X52882892Y-119649504D01*
X52882892Y-119544852D01*
X52673585Y-119544852D01*
X52673585Y-119440198D01*
X52568930Y-119440198D01*
X52568930Y-119335547D01*
X52464278Y-119335547D01*
X52464278Y-119230895D01*
X52254983Y-119230895D01*
X52254983Y-119126240D01*
X52150331Y-119126240D01*
X52150331Y-118916944D01*
X52045676Y-118916944D01*
X52045676Y-118812292D01*
X51941024Y-118812292D01*
X51941024Y-118602985D01*
X52045676Y-118602985D01*
X52045676Y-118498341D01*
X52254983Y-118498341D01*
X52254983Y-117765781D01*
X52359634Y-117765781D01*
X52359634Y-117661129D01*
X52882892Y-117661129D01*
X52882892Y-117765781D01*
X52987533Y-117765781D01*
X52987533Y-117870436D01*
X53196839Y-117870436D01*
X53196839Y-117765781D01*
X53301491Y-117765781D01*
X53301491Y-117661129D01*
X53406146Y-117661129D01*
X53406146Y-117556474D01*
X53615442Y-117556474D01*
X53615442Y-117661129D01*
G37*
G36*
X55185210Y-112847184D02*
G01*
X55394506Y-112847184D01*
X55394506Y-112951835D01*
X56127067Y-112951835D01*
X56127067Y-112847184D01*
X56336373Y-112847184D01*
X56336373Y-112742539D01*
X56650321Y-112742539D01*
X56650321Y-113161142D01*
X56545670Y-113161142D01*
X56545670Y-113265794D01*
X56441018Y-113265794D01*
X56441018Y-113475090D01*
X56336373Y-113475090D01*
X56336373Y-113579741D01*
X56231722Y-113579741D01*
X56231722Y-113684393D01*
X56127070Y-113684393D01*
X56127070Y-113789044D01*
X56022419Y-113789044D01*
X56022419Y-113893695D01*
X55917767Y-113893695D01*
X55917767Y-113998340D01*
X55813123Y-113998340D01*
X55813123Y-114102992D01*
X55603816Y-114102992D01*
X55603816Y-114207643D01*
X55289858Y-114207643D01*
X55289858Y-114312305D01*
X54243350Y-114312305D01*
X54243350Y-114207654D01*
X54138699Y-114207654D01*
X54138699Y-113998347D01*
X54243350Y-113998347D01*
X54243350Y-113789051D01*
X54348002Y-113789051D01*
X54348002Y-113579744D01*
X54452653Y-113579744D01*
X54452653Y-113265797D01*
X54557305Y-113265797D01*
X54557305Y-113161135D01*
X54975907Y-113161135D01*
X54975907Y-113265786D01*
X55185214Y-113265786D01*
X55185214Y-113370431D01*
X55289858Y-113370431D01*
X55289858Y-113265786D01*
X55185214Y-113265786D01*
X55185214Y-113161135D01*
X54975907Y-113161135D01*
X54557305Y-113161135D01*
X54557305Y-112847184D01*
X54661956Y-112847184D01*
X54661956Y-112742539D01*
X55185210Y-112742539D01*
X55185210Y-112847184D01*
G37*
G36*
X78792962Y-99095836D02*
G01*
X78542485Y-99095836D01*
X78542485Y-97847000D01*
X78792962Y-97847000D01*
X78792962Y-99095836D01*
G37*
G36*
X79043440Y-97847000D02*
G01*
X78792963Y-97847000D01*
X78792963Y-97596528D01*
X79043440Y-97596528D01*
X79043440Y-97847000D01*
G37*
G36*
X79043440Y-99600307D02*
G01*
X78792963Y-99600307D01*
X78792963Y-99099362D01*
X79043440Y-99099362D01*
X79043440Y-99600307D01*
G37*
G36*
X79293917Y-97596528D02*
G01*
X79043440Y-97596528D01*
X79043440Y-97346056D01*
X79293917Y-97346056D01*
X79293917Y-97596528D01*
G37*
G36*
X79293917Y-99847252D02*
G01*
X79043440Y-99847252D01*
X79043440Y-99596780D01*
X79293917Y-99596780D01*
X79293917Y-99847252D01*
G37*
G36*
X80292294Y-100097725D02*
G01*
X79293917Y-100097725D01*
X79293917Y-99847253D01*
X80292294Y-99847253D01*
X80292294Y-100097725D01*
G37*
G36*
X80542771Y-99847252D02*
G01*
X80292294Y-99847252D01*
X80292294Y-99596780D01*
X80542771Y-99596780D01*
X80542771Y-99847252D01*
G37*
G36*
X80793249Y-99596780D02*
G01*
X80542772Y-99596780D01*
X80542772Y-99346308D01*
X80793249Y-99346308D01*
X80793249Y-99596780D01*
G37*
G36*
X81294202Y-97596528D02*
G01*
X80793249Y-97596528D01*
X80793249Y-97346056D01*
X81294202Y-97346056D01*
X81294202Y-97596528D01*
G37*
G36*
X82042105Y-98848890D02*
G01*
X81791629Y-98848890D01*
X81791629Y-98097473D01*
X82042105Y-98097473D01*
X82042105Y-98848890D01*
G37*
G36*
X82543057Y-99099362D02*
G01*
X82042105Y-99099362D01*
X82042105Y-98848890D01*
X82543057Y-98848890D01*
X82543057Y-99099362D01*
G37*
G36*
X81791627Y-98101001D02*
G01*
X81541151Y-98101001D01*
X81541151Y-97349584D01*
X81290674Y-97349584D01*
X81290674Y-97099112D01*
X81791627Y-97099112D01*
X81791627Y-98101001D01*
G37*
G36*
X82793534Y-96598166D02*
G01*
X82543057Y-96598166D01*
X82543057Y-96848640D01*
X82292581Y-96848640D01*
X82292581Y-97596528D01*
X82543057Y-97596528D01*
X82543057Y-98848890D01*
X82042105Y-98848890D01*
X82042105Y-98097473D01*
X81791627Y-98097473D01*
X81791627Y-97099112D01*
X81294202Y-97099112D01*
X81294202Y-97346056D01*
X80793249Y-97346056D01*
X80793249Y-96848640D01*
X81043725Y-96848640D01*
X81043725Y-96598166D01*
X81791627Y-96598166D01*
X81791627Y-96347693D01*
X82292581Y-96347693D01*
X82292581Y-96097221D01*
X82793534Y-96097221D01*
X82793534Y-96598166D01*
G37*
G36*
X80292294Y-97847000D02*
G01*
X79540865Y-97847000D01*
X79540865Y-98097473D01*
X79293917Y-98097473D01*
X79293917Y-98848890D01*
X79540865Y-98848890D01*
X79540865Y-99346308D01*
X80041819Y-99346308D01*
X80041819Y-99099362D01*
X80292294Y-99099362D01*
X80292294Y-98598418D01*
X80793249Y-98598418D01*
X80793249Y-99346308D01*
X80542772Y-99346308D01*
X80542772Y-99596780D01*
X80292294Y-99596780D01*
X80292294Y-99847253D01*
X79293917Y-99847253D01*
X79293917Y-99596780D01*
X79043440Y-99596780D01*
X79043440Y-99099362D01*
X78792962Y-99099362D01*
X78792962Y-97847000D01*
X79043440Y-97847000D01*
X79043440Y-97596528D01*
X79293917Y-97596528D01*
X79293917Y-97346056D01*
X80292294Y-97346056D01*
X80292294Y-97847000D01*
G37*
G36*
X83290959Y-101597032D02*
G01*
X83791914Y-101597032D01*
X83791914Y-102348451D01*
X83541437Y-102348451D01*
X83541437Y-102598922D01*
X83290959Y-102598922D01*
X83290959Y-103346810D01*
X83044012Y-103346810D01*
X83044012Y-103597283D01*
X82042105Y-103597283D01*
X82042105Y-103847756D01*
X81791627Y-103847756D01*
X81791627Y-104098229D01*
X81541151Y-104098229D01*
X81541151Y-104348701D01*
X80292294Y-104348701D01*
X80292294Y-104098229D01*
X79791342Y-104098229D01*
X79791342Y-103847756D01*
X80041819Y-103847756D01*
X80041819Y-103597283D01*
X80542772Y-103597283D01*
X80542772Y-103346810D01*
X81043725Y-103346810D01*
X81043725Y-103096339D01*
X81541151Y-103096339D01*
X81541151Y-102845866D01*
X81791627Y-102845866D01*
X81791627Y-102598922D01*
X82042105Y-102598922D01*
X82042105Y-102348451D01*
X82543057Y-102348451D01*
X82543057Y-102097976D01*
X82793534Y-102097976D01*
X82793534Y-101847505D01*
X83044012Y-101847505D01*
X83044012Y-101346560D01*
X83290959Y-101346560D01*
X83290959Y-101597032D01*
G37*
G36*
X76041246Y-101096087D02*
G01*
X76542200Y-101096087D01*
X76542200Y-101597032D01*
X76792677Y-101597032D01*
X76792677Y-102097976D01*
X77043153Y-102097976D01*
X77043153Y-104846118D01*
X76792677Y-104846118D01*
X76792677Y-105096591D01*
X76542200Y-105096591D01*
X76542200Y-105347064D01*
X76291723Y-105347064D01*
X76291723Y-105597535D01*
X76041246Y-105597535D01*
X76041246Y-105848008D01*
X74291437Y-105848008D01*
X74291437Y-105597535D01*
X73794012Y-105597535D01*
X73794012Y-105347064D01*
X73543535Y-105347064D01*
X73543535Y-105096591D01*
X73293058Y-105096591D01*
X73293058Y-104846118D01*
X72792105Y-104846118D01*
X72792105Y-104599174D01*
X72541628Y-104599174D01*
X72541628Y-104098229D01*
X72291151Y-104098229D01*
X72291151Y-103847756D01*
X72040675Y-103847756D01*
X72040675Y-103346810D01*
X72291151Y-103346810D01*
X72291151Y-103096339D01*
X72792105Y-103096339D01*
X72792105Y-101346560D01*
X73042581Y-101346560D01*
X73042581Y-101096087D01*
X74291437Y-101096087D01*
X74291437Y-101346560D01*
X74541913Y-101346560D01*
X74541913Y-101597032D01*
X75042867Y-101597032D01*
X75042867Y-101346560D01*
X75293344Y-101346560D01*
X75293344Y-101096087D01*
X75543820Y-101096087D01*
X75543820Y-100849143D01*
X76041246Y-100849143D01*
X76041246Y-101096087D01*
G37*
G36*
X79794867Y-89595523D02*
G01*
X80295820Y-89595523D01*
X80295820Y-89845996D01*
X82045629Y-89845996D01*
X82045629Y-89595523D01*
X82546582Y-89595523D01*
X82546582Y-89345051D01*
X83298014Y-89345051D01*
X83298014Y-90343413D01*
X83047537Y-90343413D01*
X83047537Y-90593885D01*
X82797060Y-90593885D01*
X82797060Y-91094831D01*
X82546583Y-91094831D01*
X82546583Y-91345303D01*
X82296107Y-91345303D01*
X82296107Y-91595775D01*
X82045630Y-91595775D01*
X82045630Y-91846247D01*
X81795154Y-91846247D01*
X81795154Y-92096719D01*
X81544678Y-92096719D01*
X81544678Y-92347191D01*
X81294202Y-92347191D01*
X81294202Y-92597663D01*
X80793249Y-92597663D01*
X80793249Y-92848135D01*
X80041819Y-92848135D01*
X80041819Y-93098608D01*
X80045345Y-93098610D01*
X77544105Y-93098610D01*
X77544105Y-92848137D01*
X77293630Y-92848137D01*
X77293630Y-92347192D01*
X77544105Y-92347192D01*
X77544105Y-91846248D01*
X77794582Y-91846248D01*
X77794582Y-91345303D01*
X78045059Y-91345303D01*
X78045059Y-90593885D01*
X78295535Y-90593885D01*
X78295535Y-90346938D01*
X79290389Y-90346938D01*
X79290389Y-90597410D01*
X79791342Y-90597410D01*
X79791342Y-90847883D01*
X80041819Y-90847883D01*
X80041819Y-90597410D01*
X79791342Y-90597410D01*
X79791342Y-90346938D01*
X79290389Y-90346938D01*
X78295535Y-90346938D01*
X78295535Y-89595523D01*
X78546012Y-89595523D01*
X78546012Y-89345051D01*
X79794867Y-89345051D01*
X79794867Y-89595523D01*
G37*
%TD*%
D10*
%TO.C,K18*%
X156862500Y-88910000D03*
D11*
X161942500Y-88910000D03*
D10*
X167022500Y-88910000D03*
%TD*%
%TO.C,K24*%
X71137500Y-107960000D03*
D11*
X76217500Y-107960000D03*
D10*
X81297500Y-107960000D03*
%TD*%
%TO.C,K42*%
X244968750Y-127010000D03*
D11*
X250048750Y-127010000D03*
D10*
X255128750Y-127010000D03*
%TD*%
%TO.C,K10*%
X209250000Y-69860000D03*
D11*
X214330000Y-69860000D03*
D10*
X219410000Y-69860000D03*
%TD*%
%TO.C,K7*%
X152100000Y-69860000D03*
D11*
X157180000Y-69860000D03*
D10*
X162260000Y-69860000D03*
%TD*%
%TO.C,K54*%
X121143750Y-127010000D03*
D11*
X126223750Y-127010000D03*
D10*
X131303750Y-127010000D03*
%TD*%
%TO.C,K22*%
X240206250Y-88910000D03*
D11*
X245286250Y-88910000D03*
D10*
X250366250Y-88910000D03*
%TD*%
%TO.C,K46*%
X116381250Y-127010000D03*
D11*
X121461250Y-127010000D03*
D10*
X126541250Y-127010000D03*
%TD*%
%TO.C,K45*%
X123525000Y-127010000D03*
D11*
X128605000Y-127010000D03*
D10*
X133685000Y-127010000D03*
%TD*%
%TO.C,K26*%
X109237500Y-107960000D03*
D11*
X114317500Y-107960000D03*
D10*
X119397500Y-107960000D03*
%TD*%
%TO.C,K30*%
X185437500Y-107960000D03*
D11*
X190517500Y-107960000D03*
D10*
X195597500Y-107960000D03*
%TD*%
%TO.C,K49*%
X242587500Y-127010000D03*
D11*
X247667500Y-127010000D03*
D10*
X252747500Y-127010000D03*
%TD*%
%TO.C,K37*%
X111618750Y-127010000D03*
D11*
X116698750Y-127010000D03*
D10*
X121778750Y-127010000D03*
%TD*%
%TO.C,K51*%
X42562500Y-127010000D03*
D11*
X47642500Y-127010000D03*
D10*
X52722500Y-127010000D03*
%TD*%
%TO.C,K5*%
X114000000Y-69860000D03*
D11*
X119080000Y-69860000D03*
D10*
X124160000Y-69860000D03*
%TD*%
D11*
%TO.C,J3*%
X133367500Y-118755000D03*
X109555000Y-118755000D03*
D12*
X133367500Y-133995000D03*
X109555000Y-133995000D03*
%TD*%
D10*
%TO.C,K32*%
X223537500Y-107960000D03*
D11*
X228617500Y-107960000D03*
D10*
X233697500Y-107960000D03*
%TD*%
%TO.C,K6*%
X133050000Y-69860000D03*
D11*
X138130000Y-69860000D03*
D10*
X143210000Y-69860000D03*
%TD*%
D11*
%TO.C,J5*%
X138130000Y-118755000D03*
D13*
X114317500Y-133995000D03*
D11*
X114317500Y-118755000D03*
%TD*%
D10*
%TO.C,K33*%
X244968750Y-107960000D03*
D11*
X250048750Y-107960000D03*
D10*
X255128750Y-107960000D03*
%TD*%
%TO.C,K29*%
X166387500Y-107960000D03*
D11*
X171467500Y-107960000D03*
D10*
X176547500Y-107960000D03*
%TD*%
D11*
%TO.C,J6*%
X180992500Y-118755000D03*
D13*
X157180000Y-133995000D03*
D11*
X157180000Y-118755000D03*
D12*
X180992500Y-133995000D03*
%TD*%
D10*
%TO.C,K35*%
X61612500Y-127010000D03*
D11*
X66692500Y-127010000D03*
D10*
X71772500Y-127010000D03*
%TD*%
%TO.C,K15*%
X99712500Y-88910000D03*
D11*
X104792500Y-88910000D03*
D10*
X109872500Y-88910000D03*
%TD*%
%TO.C,K31*%
X204487500Y-107960000D03*
D11*
X209567500Y-107960000D03*
D10*
X214647500Y-107960000D03*
%TD*%
%TO.C,K58*%
X223537500Y-127010000D03*
D11*
X228617500Y-127010000D03*
D10*
X233697500Y-127010000D03*
%TD*%
%TO.C,K38*%
X137812500Y-127010000D03*
D11*
X142892500Y-127010000D03*
D10*
X147972500Y-127010000D03*
%TD*%
%TO.C,K3*%
X75900000Y-69860000D03*
D11*
X80980000Y-69860000D03*
D10*
X86060000Y-69860000D03*
%TD*%
%TO.C,K19*%
X175912500Y-88910000D03*
D11*
X180992500Y-88910000D03*
D10*
X186072500Y-88910000D03*
%TD*%
%TO.C,K12*%
X40181250Y-88910000D03*
D11*
X45261250Y-88910000D03*
D10*
X50341250Y-88910000D03*
%TD*%
%TO.C,K9*%
X190200000Y-69860000D03*
D11*
X195280000Y-69860000D03*
D10*
X200360000Y-69860000D03*
%TD*%
%TO.C,K8*%
X171150000Y-69860000D03*
D11*
X176230000Y-69860000D03*
D10*
X181310000Y-69860000D03*
%TD*%
%TO.C,K56*%
X199725000Y-127010000D03*
D11*
X204805000Y-127010000D03*
D10*
X209885000Y-127010000D03*
%TD*%
%TO.C,K40*%
X202106250Y-127010000D03*
D11*
X207186250Y-127010000D03*
D10*
X212266250Y-127010000D03*
%TD*%
%TO.C,K36*%
X85425000Y-127010000D03*
D11*
X90505000Y-127010000D03*
D10*
X95585000Y-127010000D03*
%TD*%
%TO.C,K13*%
X61612500Y-88910000D03*
D11*
X66692500Y-88910000D03*
D10*
X71772500Y-88910000D03*
%TD*%
%TO.C,K21*%
X214012500Y-88910000D03*
D11*
X219092500Y-88910000D03*
D10*
X224172500Y-88910000D03*
%TD*%
%TO.C,K20*%
X194962500Y-88910000D03*
D11*
X200042500Y-88910000D03*
D10*
X205122500Y-88910000D03*
%TD*%
D11*
%TO.C,J7*%
X185755000Y-118755000D03*
X161942500Y-118755000D03*
D12*
X185755000Y-133995000D03*
X161942500Y-133995000D03*
%TD*%
D10*
%TO.C,K50*%
X218775000Y-127010000D03*
D11*
X223855000Y-127010000D03*
D10*
X228935000Y-127010000D03*
%TD*%
%TO.C,K57*%
X171150000Y-127010000D03*
D11*
X176230000Y-127010000D03*
D10*
X181310000Y-127010000D03*
D14*
X178770000Y-121930000D03*
%TD*%
D10*
%TO.C,K52*%
X66375000Y-127010000D03*
D11*
X71455000Y-127010000D03*
D10*
X76535000Y-127010000D03*
%TD*%
%TO.C,K23*%
X44943750Y-107960000D03*
D11*
X50023750Y-107960000D03*
D10*
X55103750Y-107960000D03*
%TD*%
%TO.C,K25*%
X90187500Y-107960000D03*
D11*
X95267500Y-107960000D03*
D10*
X100347500Y-107960000D03*
%TD*%
D11*
%TO.C,J8*%
X188136250Y-118755000D03*
X164323750Y-118755000D03*
D12*
X188136250Y-133995000D03*
X164323750Y-133995000D03*
%TD*%
D10*
%TO.C,K53*%
X83043750Y-127010000D03*
D11*
X88123750Y-127010000D03*
D10*
X93203750Y-127010000D03*
%TD*%
%TO.C,K28*%
X147337500Y-107960000D03*
D11*
X152417500Y-107960000D03*
D10*
X157497500Y-107960000D03*
%TD*%
%TO.C,K17*%
X137812500Y-88910000D03*
D11*
X142892500Y-88910000D03*
D10*
X147972500Y-88910000D03*
%TD*%
%TO.C,K39*%
X164006250Y-127010000D03*
D11*
X169086250Y-127010000D03*
D10*
X174166250Y-127010000D03*
%TD*%
%TO.C,K55*%
X168768750Y-127010000D03*
D11*
X173848750Y-127010000D03*
D10*
X178928750Y-127010000D03*
%TD*%
%TO.C,K4*%
X94950000Y-69860000D03*
D11*
X100030000Y-69860000D03*
D10*
X105110000Y-69860000D03*
%TD*%
%TO.C,K27*%
X128287500Y-107960000D03*
D11*
X133367500Y-107960000D03*
D10*
X138447500Y-107960000D03*
%TD*%
%TO.C,K59*%
X247350000Y-69860000D03*
D11*
X252430000Y-69860000D03*
D10*
X257510000Y-69860000D03*
%TD*%
%TO.C,K41*%
X221156250Y-127010000D03*
D11*
X226236250Y-127010000D03*
D10*
X231316250Y-127010000D03*
%TD*%
%TO.C,K34*%
X40181250Y-127010000D03*
D11*
X45261250Y-127010000D03*
D10*
X50341250Y-127010000D03*
%TD*%
%TO.C,K1*%
X37800000Y-69860000D03*
D11*
X42880000Y-69860000D03*
D10*
X47960000Y-69860000D03*
%TD*%
%TO.C,K11*%
X228300000Y-69860000D03*
D11*
X233380000Y-69860000D03*
D10*
X238460000Y-69860000D03*
%TD*%
%TO.C,K16*%
X118762500Y-88910000D03*
D11*
X123842500Y-88910000D03*
D10*
X128922500Y-88910000D03*
%TD*%
%TO.C,K2*%
X56850000Y-69860000D03*
D11*
X61930000Y-69860000D03*
D10*
X67010000Y-69860000D03*
%TD*%
%TO.C,K14*%
X80662500Y-88910000D03*
D11*
X85742500Y-88910000D03*
D10*
X90822500Y-88910000D03*
%TD*%
D15*
%TO.C,J1*%
X212070000Y-81400000D03*
D16*
X214610000Y-81400000D03*
X217150000Y-81400000D03*
X219690000Y-81400000D03*
X222230000Y-81400000D03*
%TD*%
D15*
%TO.C,J2*%
X212070000Y-74260000D03*
D16*
X214610000Y-74260000D03*
X217150000Y-74260000D03*
%TD*%
D17*
%TO.C,ENC2*%
X145392500Y-134510000D03*
D18*
X140392500Y-134510000D03*
X142892500Y-134510000D03*
D19*
X137292500Y-127010000D03*
X148492500Y-127010000D03*
D18*
X140392500Y-120010000D03*
X145392500Y-120010000D03*
%TD*%
D15*
%TO.C,J4*%
X219690000Y-96895000D03*
D16*
X217150000Y-96895000D03*
%TD*%
D17*
%TO.C,ENC1*%
X45380000Y-77360000D03*
D18*
X40380000Y-77360000D03*
X42880000Y-77360000D03*
D20*
X37280000Y-69960000D03*
D19*
X48480000Y-69860000D03*
D18*
X40380000Y-62860000D03*
X45380000Y-62860000D03*
%TD*%
D21*
%TO.C,J0*%
X144760000Y-62140000D03*
X150540000Y-62140000D03*
D22*
X143330000Y-58490000D03*
D23*
X143330000Y-62670000D03*
D22*
X151970000Y-58490000D03*
D23*
X151970000Y-62670000D03*
%TD*%
M02*
