M48
; DRILL file {KiCad 7.0.7} date Sat 30 Sep 2023 22:33:17 CEST
; FORMAT={-:-/ absolute / metric / decimal}
; #@! TF.CreationDate,2023-09-30T22:33:17+02:00
; #@! TF.GenerationSoftware,Kicad,Pcbnew,7.0.7
; #@! TF.FileFunction,Plated,1,2,PTH
FMAT,2
METRIC
; #@! TA.AperFunction,Plated,PTH,ComponentDrill
T1C0.350
; #@! TA.AperFunction,Plated,PTH,ViaDrill
T2C0.400
; #@! TA.AperFunction,Plated,PTH,ComponentDrill
T3C0.600
; #@! TA.AperFunction,Plated,PTH,ComponentDrill
T4C1.000
; #@! TA.AperFunction,Plated,PTH,ComponentDrill
T5C1.500
; #@! TA.AperFunction,Plated,PTH,ComponentDrill
T6C1.524
; #@! TA.AperFunction,Plated,PTH,ComponentDrill
T7C3.048
%
G90
G05
T1
X230.367Y-88.91
X231.268Y-88.008
X231.268Y-89.812
X232.17Y-87.107
X232.17Y-88.91
X232.17Y-90.713
X233.072Y-88.008
X233.072Y-89.812
X233.973Y-88.91
T2
X53.319Y-79.529
X53.864Y-76.894
X54.26Y-79.905
X54.345Y-89.79
X54.605Y-77.565
X55.345Y-78.305
X56.016Y-79.046
X56.248Y-99.717
X58.46Y-95.68
X58.626Y-76.783
X60.096Y-81.416
X60.733Y-80.646
X61.389Y-79.892
X91.804Y-70.62
X94.935Y-80.015
X105.13Y-98.34
X110.27Y-125.66
X111.17Y-96.17
X117.512Y-75.98
X117.84Y-117.79
X143.92Y-72.64
X145.68Y-65.81
X145.99Y-73.03
X146.07Y-79.87
X146.34Y-60.8
X146.84Y-71.41
X147.589Y-77.52
X149.41Y-67.69
X150.5Y-60.87
X165.68Y-127.08
X167.09Y-135.22
X172.614Y-84.102
X180.51Y-101.529
X189.19Y-101.18
X191.638Y-92.322
X191.93Y-94.47
X192.358Y-105.029
X192.41Y-97.92
X194.15Y-86.47
X194.991Y-104.293
X196.834Y-107.069
X199.469Y-111.71
X200.051Y-65.504
X200.47Y-101.39
X201.03Y-115.855
X202.86Y-65.3
X203.198Y-82.192
X203.29Y-117.654
X206.752Y-72.87
X207.19Y-120.13
X207.248Y-74.787
X207.248Y-78.016
X207.248Y-79.016
X207.248Y-80.015
X207.248Y-81.015
X207.248Y-82.014
X207.248Y-75.787
X207.248Y-83.014
X210.294Y-78.816
X210.36Y-76.92
X214.24Y-78.84
X217.93Y-124.46
X220.04Y-128.48
X221.016Y-130.065
X223.59Y-82.56
X223.938Y-79.879
X226.885Y-82.519
X227.37Y-79.82
X227.601Y-83.217
X228.161Y-84.045
X228.54Y-80.17
X229.25Y-80.88
X231.09Y-99.33
X233.07Y-83.3
X233.306Y-81.476
X233.69Y-109.78
X234.16Y-82.601
X235.07Y-107.297
X235.718Y-106.536
X236.197Y-105.659
X236.213Y-117.193
X236.241Y-115.627
X236.592Y-104.74
X236.64Y-119.019
X236.895Y-103.788
X237.09Y-102.808
X237.29Y-101.828
X237.559Y-100.866
X237.856Y-99.911
X238.31Y-99.021
X238.372Y-95.788
X238.708Y-98.104
X239.747Y-97.163
X240.61Y-76.86
X241.79Y-74.02
X243.424Y-72.51
X248.94Y-81.03
X250.515Y-82.245
X253.41Y-97.51
X253.713Y-93.63
T4
X40.38Y-62.86
X40.38Y-77.36
X42.88Y-77.36
X45.38Y-62.86
X45.38Y-77.36
X140.392Y-120.01
X140.392Y-134.51
X142.892Y-134.51
X145.392Y-120.01
X145.392Y-134.51
X212.07Y-74.26
X212.07Y-81.4
X214.61Y-74.26
X214.61Y-81.4
X217.15Y-74.26
X217.15Y-81.4
X217.15Y-96.895
X219.69Y-81.4
X219.69Y-96.895
X222.23Y-81.4
T6
X39.07Y-67.32
X41.451Y-86.37
X41.451Y-124.47
X43.832Y-124.47
X45.42Y-64.78
X46.214Y-105.42
X47.801Y-83.83
X47.801Y-121.93
X50.182Y-121.93
X52.564Y-102.88
X58.12Y-67.32
X62.883Y-86.37
X62.883Y-124.47
X64.47Y-64.78
X67.645Y-124.47
X69.233Y-83.83
X69.233Y-121.93
X72.407Y-105.42
X73.995Y-121.93
X77.17Y-67.32
X78.757Y-102.88
X81.932Y-86.37
X83.52Y-64.78
X84.314Y-124.47
X86.695Y-124.47
X88.282Y-83.83
X90.664Y-121.93
X91.457Y-105.42
X93.045Y-121.93
X96.22Y-67.32
X97.807Y-102.88
X100.983Y-86.37
X102.57Y-64.78
X107.332Y-83.83
X110.507Y-105.42
X112.889Y-124.47
X115.27Y-67.32
X116.858Y-102.88
X117.651Y-124.47
X119.239Y-121.93
X120.032Y-86.37
X121.62Y-64.78
X122.414Y-124.47
X124.001Y-121.93
X124.795Y-124.47
X126.382Y-83.83
X128.764Y-121.93
X129.558Y-105.42
X131.145Y-121.93
X134.32Y-67.32
X135.907Y-102.88
X139.082Y-86.37
X139.082Y-124.47
X140.67Y-64.78
X145.433Y-83.83
X145.433Y-121.93
X148.607Y-105.42
X153.37Y-67.32
X154.957Y-102.88
X158.132Y-86.37
X159.72Y-64.78
X164.482Y-83.83
X165.276Y-124.47
X167.657Y-105.42
X170.039Y-124.47
X171.626Y-121.93
X172.42Y-67.32
X172.42Y-124.47
X174.007Y-102.88
X176.389Y-121.93
X177.183Y-86.37
X178.77Y-64.78
X178.77Y-121.93
X183.532Y-83.83
X186.707Y-105.42
X191.47Y-67.32
X193.058Y-102.88
X196.232Y-86.37
X197.82Y-64.78
X200.995Y-124.47
X202.582Y-83.83
X203.376Y-124.47
X205.757Y-105.42
X207.345Y-121.93
X209.726Y-121.93
X210.52Y-67.32
X212.107Y-102.88
X215.282Y-86.37
X216.87Y-64.78
X220.045Y-124.47
X221.632Y-83.83
X222.426Y-124.47
X224.807Y-105.42
X224.807Y-124.47
X226.395Y-121.93
X228.776Y-121.93
X229.57Y-67.32
X231.157Y-102.88
X231.157Y-121.93
X235.92Y-64.78
X241.476Y-86.37
X243.857Y-124.47
X246.239Y-105.42
X246.239Y-124.47
X247.826Y-83.83
X248.62Y-67.32
X250.207Y-121.93
X252.589Y-102.88
X252.589Y-121.93
X254.97Y-64.78
T7
X109.555Y-133.995
X133.368Y-133.995
X161.942Y-133.995
X164.324Y-133.995
X180.992Y-133.995
X185.755Y-133.995
X188.136Y-133.995
T3
G00X143.33Y-58.19
M15
G01X143.33Y-58.79
M16
G05
G00X143.33Y-62.12
M15
G01X143.33Y-63.22
M16
G05
G00X151.97Y-58.19
M15
G01X151.97Y-58.79
M16
G05
G00X151.97Y-62.12
M15
G01X151.97Y-63.22
M16
G05
T5
G00X37.28Y-70.51
M15
G01X37.28Y-69.21
M16
G05
G00X48.48Y-70.51
M15
G01X48.48Y-69.21
M16
G05
G00X137.292Y-127.66
M15
G01X137.292Y-126.36
M16
G05
G00X148.493Y-127.66
M15
G01X148.493Y-126.36
M16
G05
T0
M30
