M48
; DRILL file {KiCad 7.0.7} date Sat 30 Sep 2023 22:33:17 CEST
; FORMAT={-:-/ absolute / metric / decimal}
; #@! TF.CreationDate,2023-09-30T22:33:17+02:00
; #@! TF.GenerationSoftware,Kicad,Pcbnew,7.0.7
; #@! TF.FileFunction,NonPlated,1,2,NPTH
FMAT,2
METRIC
; #@! TA.AperFunction,NonPlated,NPTH,ComponentDrill
T1C0.650
; #@! TA.AperFunction,NonPlated,NPTH,ComponentDrill
T2C1.750
; #@! TA.AperFunction,NonPlated,NPTH,ComponentDrill
T3C3.048
; #@! TA.AperFunction,NonPlated,NPTH,ComponentDrill
T4C3.988
%
G90
G05
T1
X144.76Y-62.14
X150.54Y-62.14
T2
X37.8Y-69.86
X40.181Y-88.91
X40.181Y-127.01
X42.562Y-127.01
X44.944Y-107.96
X47.96Y-69.86
X50.341Y-88.91
X50.341Y-127.01
X52.722Y-127.01
X55.104Y-107.96
X56.85Y-69.86
X61.612Y-88.91
X61.612Y-127.01
X66.375Y-127.01
X67.01Y-69.86
X71.138Y-107.96
X71.772Y-88.91
X71.772Y-127.01
X75.9Y-69.86
X76.535Y-127.01
X80.662Y-88.91
X81.297Y-107.96
X83.044Y-127.01
X85.425Y-127.01
X86.06Y-69.86
X90.188Y-107.96
X90.822Y-88.91
X93.204Y-127.01
X94.95Y-69.86
X95.585Y-127.01
X99.712Y-88.91
X100.347Y-107.96
X105.11Y-69.86
X109.237Y-107.96
X109.872Y-88.91
X111.619Y-127.01
X114.0Y-69.86
X116.381Y-127.01
X118.762Y-88.91
X119.397Y-107.96
X121.144Y-127.01
X121.779Y-127.01
X123.525Y-127.01
X124.16Y-69.86
X126.541Y-127.01
X128.287Y-107.96
X128.922Y-88.91
X131.304Y-127.01
X133.05Y-69.86
X133.685Y-127.01
X137.812Y-88.91
X137.812Y-127.01
X138.447Y-107.96
X143.21Y-69.86
X147.338Y-107.96
X147.972Y-88.91
X147.972Y-127.01
X152.1Y-69.86
X156.862Y-88.91
X157.498Y-107.96
X162.26Y-69.86
X164.006Y-127.01
X166.387Y-107.96
X167.022Y-88.91
X168.769Y-127.01
X171.15Y-69.86
X171.15Y-127.01
X174.166Y-127.01
X175.912Y-88.91
X176.547Y-107.96
X178.929Y-127.01
X181.31Y-69.86
X181.31Y-127.01
X185.438Y-107.96
X186.072Y-88.91
X190.2Y-69.86
X194.962Y-88.91
X195.597Y-107.96
X199.725Y-127.01
X200.36Y-69.86
X202.106Y-127.01
X204.487Y-107.96
X205.123Y-88.91
X209.25Y-69.86
X209.885Y-127.01
X212.266Y-127.01
X214.012Y-88.91
X214.647Y-107.96
X218.775Y-127.01
X219.41Y-69.86
X221.156Y-127.01
X223.537Y-107.96
X223.537Y-127.01
X224.172Y-88.91
X228.3Y-69.86
X228.935Y-127.01
X231.316Y-127.01
X233.697Y-107.96
X233.697Y-127.01
X238.46Y-69.86
X240.206Y-88.91
X242.587Y-127.01
X244.969Y-107.96
X244.969Y-127.01
X247.35Y-69.86
X250.366Y-88.91
X252.748Y-127.01
X255.129Y-107.96
X255.129Y-127.01
X257.51Y-69.86
T3
X114.317Y-133.995
X138.13Y-133.995
X157.18Y-133.995
T4
X42.88Y-69.86
X45.261Y-88.91
X45.261Y-127.01
X47.642Y-127.01
X50.024Y-107.96
X61.93Y-69.86
X66.692Y-88.91
X66.692Y-127.01
X71.455Y-127.01
X76.218Y-107.96
X80.98Y-69.86
X85.742Y-88.91
X88.124Y-127.01
X90.505Y-127.01
X95.267Y-107.96
X100.03Y-69.86
X104.792Y-88.91
X109.555Y-118.755
X114.317Y-107.96
X114.317Y-118.755
X116.699Y-127.01
X119.08Y-69.86
X121.461Y-127.01
X123.843Y-88.91
X126.224Y-127.01
X128.605Y-127.01
X133.368Y-107.96
X133.368Y-118.755
X138.13Y-69.86
X138.13Y-118.755
X142.892Y-88.91
X142.892Y-127.01
X152.417Y-107.96
X157.18Y-69.86
X157.18Y-118.755
X161.942Y-88.91
X161.942Y-118.755
X164.324Y-118.755
X169.086Y-127.01
X171.468Y-107.96
X173.849Y-127.01
X176.23Y-69.86
X176.23Y-127.01
X180.992Y-88.91
X180.992Y-118.755
X185.755Y-118.755
X188.136Y-118.755
X190.517Y-107.96
X195.28Y-69.86
X200.042Y-88.91
X204.805Y-127.01
X207.186Y-127.01
X209.567Y-107.96
X214.33Y-69.86
X219.093Y-88.91
X223.855Y-127.01
X226.236Y-127.01
X228.617Y-107.96
X228.617Y-127.01
X233.38Y-69.86
X245.286Y-88.91
X247.667Y-127.01
X250.049Y-107.96
X250.049Y-127.01
X252.43Y-69.86
T0
M30
