%TF.GenerationSoftware,KiCad,Pcbnew,7.0.7*%
%TF.CreationDate,2023-09-30T22:32:59+02:00*%
%TF.ProjectId,dizzy40,64697a7a-7934-4302-9e6b-696361645f70,rev?*%
%TF.SameCoordinates,Original*%
%TF.FileFunction,Soldermask,Bot*%
%TF.FilePolarity,Negative*%
%FSLAX46Y46*%
G04 Gerber Fmt 4.6, Leading zero omitted, Abs format (unit mm)*
G04 Created by KiCad (PCBNEW 7.0.7) date 2023-09-30 22:32:59*
%MOMM*%
%LPD*%
G01*
G04 APERTURE LIST*
G04 Aperture macros list*
%AMRoundRect*
0 Rectangle with rounded corners*
0 $1 Rounding radius*
0 $2 $3 $4 $5 $6 $7 $8 $9 X,Y pos of 4 corners*
0 Add a 4 corners polygon primitive as box body*
4,1,4,$2,$3,$4,$5,$6,$7,$8,$9,$2,$3,0*
0 Add four circle primitives for the rounded corners*
1,1,$1+$1,$2,$3*
1,1,$1+$1,$4,$5*
1,1,$1+$1,$6,$7*
1,1,$1+$1,$8,$9*
0 Add four rect primitives between the rounded corners*
20,1,$1+$1,$2,$3,$4,$5,0*
20,1,$1+$1,$4,$5,$6,$7,0*
20,1,$1+$1,$6,$7,$8,$9,0*
20,1,$1+$1,$8,$9,$2,$3,0*%
%AMRotRect*
0 Rectangle, with rotation*
0 The origin of the aperture is its center*
0 $1 length*
0 $2 width*
0 $3 Rotation angle, in degrees counterclockwise*
0 Add horizontal line*
21,1,$1,$2,0,0,$3*%
G04 Aperture macros list end*
%ADD10C,1.750000*%
%ADD11C,3.987800*%
%ADD12C,2.300000*%
%ADD13C,4.000000*%
%ADD14C,3.048000*%
%ADD15R,1.600000X1.000000*%
%ADD16RotRect,0.900000X0.800000X205.000000*%
%ADD17RotRect,0.900000X0.800000X185.000000*%
%ADD18RoundRect,0.250000X-0.625000X0.375000X-0.625000X-0.375000X0.625000X-0.375000X0.625000X0.375000X0*%
%ADD19RotRect,0.900000X0.800000X186.000000*%
%ADD20RoundRect,0.250000X-0.475000X0.250000X-0.475000X-0.250000X0.475000X-0.250000X0.475000X0.250000X0*%
%ADD21RoundRect,0.250000X-0.159099X0.512652X-0.512652X0.159099X0.159099X-0.512652X0.512652X-0.159099X0*%
%ADD22RotRect,0.900000X0.800000X190.000000*%
%ADD23RotRect,0.900000X0.800000X182.000000*%
%ADD24RoundRect,0.250000X-0.488746X0.180370X-0.397581X-0.336654X0.488746X-0.180370X0.397581X0.336654X0*%
%ADD25RoundRect,0.250000X-0.132583X0.503814X-0.503814X0.132583X0.132583X-0.503814X0.503814X-0.132583X0*%
%ADD26R,1.700000X1.700000*%
%ADD27O,1.700000X1.700000*%
%ADD28RoundRect,0.250000X0.512652X0.159099X0.159099X0.512652X-0.512652X-0.159099X-0.159099X-0.512652X0*%
%ADD29RotRect,0.900000X0.800000X195.000000*%
%ADD30RotRect,0.900000X0.800000X187.000000*%
%ADD31RoundRect,0.250000X-0.262500X-0.450000X0.262500X-0.450000X0.262500X0.450000X-0.262500X0.450000X0*%
%ADD32R,0.800000X0.900000*%
%ADD33RotRect,0.900000X0.800000X218.000000*%
%ADD34RotRect,0.900000X0.800000X230.000000*%
%ADD35RoundRect,0.250000X0.475000X-0.250000X0.475000X0.250000X-0.475000X0.250000X-0.475000X-0.250000X0*%
%ADD36R,2.000000X2.000000*%
%ADD37C,2.000000*%
%ADD38R,2.000000X3.200000*%
%ADD39RotRect,0.900000X0.800000X177.000000*%
%ADD40RotRect,1.700000X1.000000X80.000000*%
%ADD41RotRect,0.900000X0.800000X223.000000*%
%ADD42RotRect,1.400000X1.200000X315.000000*%
%ADD43RotRect,1.700000X1.000000X100.000000*%
%ADD44RoundRect,0.250000X-0.397581X0.336654X-0.488746X-0.180370X0.397581X-0.336654X0.488746X0.180370X0*%
%ADD45RotRect,0.900000X0.800000X245.000000*%
%ADD46RotRect,0.900000X0.800000X176.000000*%
%ADD47RotRect,0.900000X0.800000X184.000000*%
%ADD48RotRect,0.900000X0.800000X213.000000*%
%ADD49RoundRect,0.150000X-0.650000X-0.150000X0.650000X-0.150000X0.650000X0.150000X-0.650000X0.150000X0*%
%ADD50RotRect,0.900000X0.800000X178.000000*%
%ADD51RotRect,0.900000X0.800000X140.000000*%
%ADD52RotRect,0.900000X0.800000X175.000000*%
%ADD53RoundRect,0.150000X0.512500X0.150000X-0.512500X0.150000X-0.512500X-0.150000X0.512500X-0.150000X0*%
%ADD54RoundRect,0.050000X0.309359X-0.238649X-0.238649X0.309359X-0.309359X0.238649X0.238649X-0.309359X0*%
%ADD55RoundRect,0.050000X0.309359X0.238649X0.238649X0.309359X-0.309359X-0.238649X-0.238649X-0.309359X0*%
%ADD56RoundRect,0.144000X2.059095X0.000000X0.000000X2.059095X-2.059095X0.000000X0.000000X-2.059095X0*%
%ADD57R,1.800000X3.000000*%
%ADD58C,0.650000*%
%ADD59R,0.600000X1.450000*%
%ADD60R,0.300000X1.450000*%
%ADD61O,1.000000X1.600000*%
%ADD62O,1.000000X2.100000*%
%ADD63R,0.900000X0.800000*%
%ADD64RoundRect,0.250000X0.262500X0.450000X-0.262500X0.450000X-0.262500X-0.450000X0.262500X-0.450000X0*%
%ADD65RotRect,0.900000X0.800000X181.000000*%
G04 APERTURE END LIST*
D10*
%TO.C,K18*%
X156862500Y-88910000D03*
D11*
X161942500Y-88910000D03*
D10*
X167022500Y-88910000D03*
D12*
X158132500Y-86370000D03*
X164482500Y-83830000D03*
%TD*%
D10*
%TO.C,K24*%
X71137500Y-107960000D03*
D11*
X76217500Y-107960000D03*
D10*
X81297500Y-107960000D03*
D12*
X72407500Y-105420000D03*
X78757500Y-102880000D03*
%TD*%
D10*
%TO.C,K42*%
X244968750Y-127010000D03*
D11*
X250048750Y-127010000D03*
D10*
X255128750Y-127010000D03*
D12*
X246238750Y-124470000D03*
X252588750Y-121930000D03*
%TD*%
D10*
%TO.C,K10*%
X209250000Y-69860000D03*
D11*
X214330000Y-69860000D03*
D10*
X219410000Y-69860000D03*
D12*
X210520000Y-67320000D03*
X216870000Y-64780000D03*
%TD*%
D10*
%TO.C,K7*%
X152100000Y-69860000D03*
D11*
X157180000Y-69860000D03*
D10*
X162260000Y-69860000D03*
D12*
X153370000Y-67320000D03*
X159720000Y-64780000D03*
%TD*%
D10*
%TO.C,K54*%
X121143750Y-127010000D03*
D11*
X126223750Y-127010000D03*
D10*
X131303750Y-127010000D03*
D12*
X122413750Y-124470000D03*
X128763750Y-121930000D03*
%TD*%
D10*
%TO.C,K22*%
X240206250Y-88910000D03*
D11*
X245286250Y-88910000D03*
D10*
X250366250Y-88910000D03*
D12*
X241476250Y-86370000D03*
X247826250Y-83830000D03*
%TD*%
D10*
%TO.C,K46*%
X116381250Y-127010000D03*
D11*
X121461250Y-127010000D03*
D10*
X126541250Y-127010000D03*
D12*
X117651250Y-124470000D03*
X124001250Y-121930000D03*
%TD*%
D10*
%TO.C,K45*%
X123525000Y-127010000D03*
D11*
X128605000Y-127010000D03*
D10*
X133685000Y-127010000D03*
D12*
X124795000Y-124470000D03*
X131145000Y-121930000D03*
%TD*%
D10*
%TO.C,K26*%
X109237500Y-107960000D03*
D11*
X114317500Y-107960000D03*
D10*
X119397500Y-107960000D03*
D12*
X110507500Y-105420000D03*
X116857500Y-102880000D03*
%TD*%
D10*
%TO.C,K30*%
X185437500Y-107960000D03*
D11*
X190517500Y-107960000D03*
D10*
X195597500Y-107960000D03*
D12*
X186707500Y-105420000D03*
X193057500Y-102880000D03*
%TD*%
D10*
%TO.C,K49*%
X242587500Y-127010000D03*
D11*
X247667500Y-127010000D03*
D10*
X252747500Y-127010000D03*
D12*
X243857500Y-124470000D03*
X250207500Y-121930000D03*
%TD*%
D10*
%TO.C,K37*%
X111618750Y-127010000D03*
D11*
X116698750Y-127010000D03*
D10*
X121778750Y-127010000D03*
D12*
X112888750Y-124470000D03*
X119238750Y-121930000D03*
%TD*%
D10*
%TO.C,K51*%
X42562500Y-127010000D03*
D11*
X47642500Y-127010000D03*
D10*
X52722500Y-127010000D03*
D12*
X43832500Y-124470000D03*
X50182500Y-121930000D03*
%TD*%
D10*
%TO.C,K5*%
X114000000Y-69860000D03*
D11*
X119080000Y-69860000D03*
D10*
X124160000Y-69860000D03*
D12*
X115270000Y-67320000D03*
X121620000Y-64780000D03*
%TD*%
D11*
%TO.C,J3*%
X133367500Y-118755000D03*
X109555000Y-118755000D03*
D13*
X133367500Y-133995000D03*
%TD*%
D10*
%TO.C,K32*%
X223537500Y-107960000D03*
D11*
X228617500Y-107960000D03*
D10*
X233697500Y-107960000D03*
D12*
X224807500Y-105420000D03*
X231157500Y-102880000D03*
%TD*%
D10*
%TO.C,K6*%
X133050000Y-69860000D03*
D11*
X138130000Y-69860000D03*
D10*
X143210000Y-69860000D03*
D12*
X134320000Y-67320000D03*
X140670000Y-64780000D03*
%TD*%
D11*
%TO.C,J5*%
X138130000Y-118755000D03*
D14*
X114317500Y-133995000D03*
D11*
X114317500Y-118755000D03*
%TD*%
D10*
%TO.C,K33*%
X244968750Y-107960000D03*
D11*
X250048750Y-107960000D03*
D10*
X255128750Y-107960000D03*
D12*
X246238750Y-105420000D03*
X252588750Y-102880000D03*
%TD*%
D10*
%TO.C,K29*%
X166387500Y-107960000D03*
D11*
X171467500Y-107960000D03*
D10*
X176547500Y-107960000D03*
D12*
X167657500Y-105420000D03*
X174007500Y-102880000D03*
%TD*%
D11*
%TO.C,J6*%
X180992500Y-118755000D03*
D14*
X157180000Y-133995000D03*
D11*
X157180000Y-118755000D03*
D13*
X180992500Y-133995000D03*
%TD*%
D10*
%TO.C,K35*%
X61612500Y-127010000D03*
D11*
X66692500Y-127010000D03*
D10*
X71772500Y-127010000D03*
D12*
X62882500Y-124470000D03*
X69232500Y-121930000D03*
%TD*%
D10*
%TO.C,K15*%
X99712500Y-88910000D03*
D11*
X104792500Y-88910000D03*
D10*
X109872500Y-88910000D03*
D12*
X100982500Y-86370000D03*
X107332500Y-83830000D03*
%TD*%
D10*
%TO.C,K31*%
X204487500Y-107960000D03*
D11*
X209567500Y-107960000D03*
D10*
X214647500Y-107960000D03*
D12*
X205757500Y-105420000D03*
X212107500Y-102880000D03*
%TD*%
D10*
%TO.C,K58*%
X223537500Y-127010000D03*
D11*
X228617500Y-127010000D03*
D10*
X233697500Y-127010000D03*
D12*
X224807500Y-124470000D03*
X231157500Y-121930000D03*
%TD*%
D10*
%TO.C,K38*%
X137812500Y-127010000D03*
D11*
X142892500Y-127010000D03*
D10*
X147972500Y-127010000D03*
D12*
X139082500Y-124470000D03*
X145432500Y-121930000D03*
%TD*%
D10*
%TO.C,K3*%
X75900000Y-69860000D03*
D11*
X80980000Y-69860000D03*
D10*
X86060000Y-69860000D03*
D12*
X77170000Y-67320000D03*
X83520000Y-64780000D03*
%TD*%
D10*
%TO.C,K19*%
X175912500Y-88910000D03*
D11*
X180992500Y-88910000D03*
D10*
X186072500Y-88910000D03*
D12*
X177182500Y-86370000D03*
X183532500Y-83830000D03*
%TD*%
D10*
%TO.C,K12*%
X40181250Y-88910000D03*
D11*
X45261250Y-88910000D03*
D10*
X50341250Y-88910000D03*
D12*
X41451250Y-86370000D03*
X47801250Y-83830000D03*
%TD*%
D10*
%TO.C,K9*%
X190200000Y-69860000D03*
D11*
X195280000Y-69860000D03*
D10*
X200360000Y-69860000D03*
D12*
X191470000Y-67320000D03*
X197820000Y-64780000D03*
%TD*%
D10*
%TO.C,K8*%
X171150000Y-69860000D03*
D11*
X176230000Y-69860000D03*
D10*
X181310000Y-69860000D03*
D12*
X172420000Y-67320000D03*
X178770000Y-64780000D03*
%TD*%
D10*
%TO.C,K56*%
X199725000Y-127010000D03*
D11*
X204805000Y-127010000D03*
D10*
X209885000Y-127010000D03*
D12*
X200995000Y-124470000D03*
X207345000Y-121930000D03*
%TD*%
D10*
%TO.C,K40*%
X202106250Y-127010000D03*
D11*
X207186250Y-127010000D03*
D10*
X212266250Y-127010000D03*
D12*
X203376250Y-124470000D03*
X209726250Y-121930000D03*
%TD*%
D10*
%TO.C,K36*%
X85425000Y-127010000D03*
D11*
X90505000Y-127010000D03*
D10*
X95585000Y-127010000D03*
D12*
X86695000Y-124470000D03*
X93045000Y-121930000D03*
%TD*%
D10*
%TO.C,K13*%
X61612500Y-88910000D03*
D11*
X66692500Y-88910000D03*
D10*
X71772500Y-88910000D03*
D12*
X62882500Y-86370000D03*
X69232500Y-83830000D03*
%TD*%
D10*
%TO.C,K21*%
X214012500Y-88910000D03*
D11*
X219092500Y-88910000D03*
D10*
X224172500Y-88910000D03*
D12*
X215282500Y-86370000D03*
X221632500Y-83830000D03*
%TD*%
D10*
%TO.C,K20*%
X194962500Y-88910000D03*
D11*
X200042500Y-88910000D03*
D10*
X205122500Y-88910000D03*
D12*
X196232500Y-86370000D03*
X202582500Y-83830000D03*
%TD*%
D11*
%TO.C,J7*%
X185755000Y-118755000D03*
X161942500Y-118755000D03*
D13*
X185755000Y-133995000D03*
X161942500Y-133995000D03*
%TD*%
D10*
%TO.C,K50*%
X218775000Y-127010000D03*
D11*
X223855000Y-127010000D03*
D10*
X228935000Y-127010000D03*
D12*
X220045000Y-124470000D03*
X226395000Y-121930000D03*
%TD*%
D10*
%TO.C,K57*%
X171150000Y-127010000D03*
D11*
X176230000Y-127010000D03*
D10*
X181310000Y-127010000D03*
D12*
X172420000Y-124470000D03*
X178770000Y-121930000D03*
%TD*%
D10*
%TO.C,K52*%
X66375000Y-127010000D03*
D11*
X71455000Y-127010000D03*
D10*
X76535000Y-127010000D03*
D12*
X67645000Y-124470000D03*
X73995000Y-121930000D03*
%TD*%
D10*
%TO.C,K23*%
X44943750Y-107960000D03*
D11*
X50023750Y-107960000D03*
D10*
X55103750Y-107960000D03*
D12*
X46213750Y-105420000D03*
X52563750Y-102880000D03*
%TD*%
D10*
%TO.C,K25*%
X90187500Y-107960000D03*
D11*
X95267500Y-107960000D03*
D10*
X100347500Y-107960000D03*
D12*
X91457500Y-105420000D03*
X97807500Y-102880000D03*
%TD*%
D11*
%TO.C,J8*%
X188136250Y-118755000D03*
X164323750Y-118755000D03*
D13*
X188136250Y-133995000D03*
X164323750Y-133995000D03*
%TD*%
D10*
%TO.C,K53*%
X83043750Y-127010000D03*
D11*
X88123750Y-127010000D03*
D10*
X93203750Y-127010000D03*
D12*
X84313750Y-124470000D03*
X90663750Y-121930000D03*
%TD*%
D10*
%TO.C,K28*%
X147337500Y-107960000D03*
D11*
X152417500Y-107960000D03*
D10*
X157497500Y-107960000D03*
D12*
X148607500Y-105420000D03*
X154957500Y-102880000D03*
%TD*%
D10*
%TO.C,K17*%
X137812500Y-88910000D03*
D11*
X142892500Y-88910000D03*
D10*
X147972500Y-88910000D03*
D12*
X139082500Y-86370000D03*
X145432500Y-83830000D03*
%TD*%
D10*
%TO.C,K39*%
X164006250Y-127010000D03*
D11*
X169086250Y-127010000D03*
D10*
X174166250Y-127010000D03*
D12*
X165276250Y-124470000D03*
X171626250Y-121930000D03*
%TD*%
D10*
%TO.C,K55*%
X168768750Y-127010000D03*
D11*
X173848750Y-127010000D03*
D10*
X178928750Y-127010000D03*
D12*
X170038750Y-124470000D03*
X176388750Y-121930000D03*
%TD*%
D10*
%TO.C,K4*%
X94950000Y-69860000D03*
D11*
X100030000Y-69860000D03*
D10*
X105110000Y-69860000D03*
D12*
X96220000Y-67320000D03*
X102570000Y-64780000D03*
%TD*%
D10*
%TO.C,K27*%
X128287500Y-107960000D03*
D11*
X133367500Y-107960000D03*
D10*
X138447500Y-107960000D03*
D12*
X129557500Y-105420000D03*
X135907500Y-102880000D03*
%TD*%
D10*
%TO.C,K59*%
X247350000Y-69860000D03*
D11*
X252430000Y-69860000D03*
D10*
X257510000Y-69860000D03*
D12*
X248620000Y-67320000D03*
X254970000Y-64780000D03*
%TD*%
D10*
%TO.C,K41*%
X221156250Y-127010000D03*
D11*
X226236250Y-127010000D03*
D10*
X231316250Y-127010000D03*
D12*
X222426250Y-124470000D03*
X228776250Y-121930000D03*
%TD*%
D10*
%TO.C,K34*%
X40181250Y-127010000D03*
D11*
X45261250Y-127010000D03*
D10*
X50341250Y-127010000D03*
D12*
X41451250Y-124470000D03*
X47801250Y-121930000D03*
%TD*%
D10*
%TO.C,K1*%
X37800000Y-69860000D03*
D11*
X42880000Y-69860000D03*
D10*
X47960000Y-69860000D03*
D12*
X39070000Y-67320000D03*
X45420000Y-64780000D03*
%TD*%
D10*
%TO.C,K11*%
X228300000Y-69860000D03*
D11*
X233380000Y-69860000D03*
D10*
X238460000Y-69860000D03*
D12*
X229570000Y-67320000D03*
X235920000Y-64780000D03*
%TD*%
D10*
%TO.C,K16*%
X118762500Y-88910000D03*
D11*
X123842500Y-88910000D03*
D10*
X128922500Y-88910000D03*
D12*
X120032500Y-86370000D03*
X126382500Y-83830000D03*
%TD*%
D10*
%TO.C,K2*%
X56850000Y-69860000D03*
D11*
X61930000Y-69860000D03*
D10*
X67010000Y-69860000D03*
D12*
X58120000Y-67320000D03*
X64470000Y-64780000D03*
%TD*%
D10*
%TO.C,K14*%
X80662500Y-88910000D03*
D11*
X85742500Y-88910000D03*
D10*
X90822500Y-88910000D03*
D12*
X81932500Y-86370000D03*
X88282500Y-83830000D03*
%TD*%
D15*
%TO.C,RGB7*%
X119150000Y-81020000D03*
X119150000Y-77820000D03*
X124150000Y-77820000D03*
X124150000Y-81020000D03*
%TD*%
D16*
%TO.C,D27*%
X196214820Y-103666389D03*
X197017795Y-105388374D03*
X194803692Y-105372618D03*
%TD*%
D17*
%TO.C,D26*%
X193374404Y-91027230D03*
X193540000Y-92920000D03*
X191464812Y-92147927D03*
%TD*%
D15*
%TO.C,RGB5*%
X145150000Y-80810000D03*
X145150000Y-77610000D03*
X150150000Y-77610000D03*
X150150000Y-80810000D03*
%TD*%
D18*
%TO.C,F0*%
X145500000Y-66880000D03*
X145500000Y-69680000D03*
%TD*%
D19*
%TO.C,D38*%
X59541823Y-104394217D03*
X59740427Y-106283808D03*
X57652081Y-105548069D03*
%TD*%
D20*
%TO.C,C6*%
X212750000Y-95970000D03*
X212750000Y-97870000D03*
%TD*%
%TO.C,C14*%
X226350000Y-76880000D03*
X226350000Y-78780000D03*
%TD*%
D21*
%TO.C,C3*%
X226881751Y-93528249D03*
X225538249Y-94871751D03*
%TD*%
D22*
%TO.C,D35*%
X60860000Y-115010000D03*
X61189932Y-116881135D03*
X59055350Y-116292864D03*
%TD*%
D23*
%TO.C,D30*%
X59100000Y-97260000D03*
X59166309Y-99158843D03*
X57134373Y-98279220D03*
%TD*%
D24*
%TO.C,R8*%
X252471546Y-81431363D03*
X252788454Y-83228637D03*
%TD*%
D22*
%TO.C,D20*%
X193760068Y-94618865D03*
X194090000Y-96490000D03*
X191955418Y-95901729D03*
%TD*%
D25*
%TO.C,R5*%
X225425235Y-92144765D03*
X224134765Y-93435235D03*
%TD*%
D20*
%TO.C,C12*%
X220310000Y-76880000D03*
X220310000Y-78780000D03*
%TD*%
D15*
%TO.C,RGB3*%
X171150000Y-81020000D03*
X171150000Y-77820000D03*
X176150000Y-77820000D03*
X176150000Y-81020000D03*
%TD*%
D26*
%TO.C,J1*%
X212070000Y-81400000D03*
D27*
X214610000Y-81400000D03*
X217150000Y-81400000D03*
X219690000Y-81400000D03*
X222230000Y-81400000D03*
%TD*%
D26*
%TO.C,J2*%
X212070000Y-74260000D03*
D27*
X214610000Y-74260000D03*
X217150000Y-74260000D03*
%TD*%
D28*
%TO.C,C10*%
X231921751Y-82491751D03*
X230578249Y-81148249D03*
%TD*%
D20*
%TO.C,C4*%
X218290000Y-76880000D03*
X218290000Y-78780000D03*
%TD*%
D29*
%TO.C,D22*%
X194460048Y-98163551D03*
X194951804Y-99998810D03*
X192774074Y-99598819D03*
%TD*%
D30*
%TO.C,D37*%
X59940000Y-107934162D03*
X60171552Y-109820000D03*
X58070684Y-109120819D03*
%TD*%
D31*
%TO.C,R7*%
X139687500Y-61920000D03*
X141512500Y-61920000D03*
%TD*%
D15*
%TO.C,RGB2*%
X189150000Y-96830000D03*
X189150000Y-100030000D03*
X184150000Y-100030000D03*
X184150000Y-96830000D03*
%TD*%
D32*
%TO.C,U4*%
X214420000Y-78830000D03*
X212520000Y-78830000D03*
X213470000Y-76830000D03*
%TD*%
D20*
%TO.C,C5*%
X249640000Y-78990000D03*
X249640000Y-80890000D03*
%TD*%
%TO.C,C8*%
X214800000Y-95970000D03*
X214800000Y-97870000D03*
%TD*%
D31*
%TO.C,R4*%
X147847500Y-70500000D03*
X149672500Y-70500000D03*
%TD*%
D20*
%TO.C,C11*%
X222330000Y-76880000D03*
X222330000Y-78780000D03*
%TD*%
D15*
%TO.C,RGB9*%
X98150000Y-77820000D03*
X98150000Y-81020000D03*
X93150000Y-81020000D03*
X93150000Y-77820000D03*
%TD*%
D33*
%TO.C,D28*%
X200880243Y-111952779D03*
X202050000Y-113450000D03*
X199889100Y-113932712D03*
%TD*%
D20*
%TO.C,C9*%
X228370000Y-76880000D03*
X228370000Y-78780000D03*
%TD*%
D34*
%TO.C,D32*%
X205715045Y-117323307D03*
X207170530Y-118544604D03*
X205157212Y-119466044D03*
%TD*%
D35*
%TO.C,C1*%
X210620000Y-78780000D03*
X210620000Y-76880000D03*
%TD*%
D23*
%TO.C,D29*%
X58976236Y-93715679D03*
X59042545Y-95614522D03*
X57010609Y-94734899D03*
%TD*%
D30*
%TO.C,D36*%
X60380000Y-111460000D03*
X60611552Y-113345838D03*
X58510684Y-112646657D03*
%TD*%
D36*
%TO.C,ENC2*%
X145392500Y-134510000D03*
D37*
X140392500Y-134510000D03*
X142892500Y-134510000D03*
D38*
X137292500Y-127010000D03*
X148492500Y-127010000D03*
D37*
X140392500Y-120010000D03*
X145392500Y-120010000D03*
%TD*%
D21*
%TO.C,C2*%
X231341751Y-97988249D03*
X229998249Y-99331751D03*
%TD*%
D39*
%TO.C,D19*%
X59148349Y-79443638D03*
X59048910Y-81341034D03*
X57101370Y-80287664D03*
%TD*%
D40*
%TO.C,SW0*%
X258368286Y-97064152D03*
X259462269Y-90859863D03*
X254626017Y-96404289D03*
X255720000Y-90200000D03*
%TD*%
D20*
%TO.C,C17*%
X216270000Y-76880000D03*
X216270000Y-78780000D03*
%TD*%
D41*
%TO.C,D34*%
X203164203Y-114750428D03*
X204460000Y-116140000D03*
X202349394Y-116809210D03*
%TD*%
D15*
%TO.C,RGB8*%
X111150000Y-96830000D03*
X111150000Y-100030000D03*
X106150000Y-100030000D03*
X106150000Y-96830000D03*
%TD*%
D42*
%TO.C,Y0*%
X228263223Y-95051142D03*
X229818858Y-96606777D03*
X228616777Y-97808858D03*
X227061142Y-96253223D03*
%TD*%
D26*
%TO.C,J4*%
X219690000Y-96895000D03*
D27*
X217150000Y-96895000D03*
%TD*%
D31*
%TO.C,R3*%
X147847500Y-72470000D03*
X149672500Y-72470000D03*
%TD*%
D15*
%TO.C,RGB1*%
X197150000Y-81020000D03*
X197150000Y-77820000D03*
X202150000Y-77820000D03*
X202150000Y-81020000D03*
%TD*%
%TO.C,RGB4*%
X163150000Y-96830000D03*
X163150000Y-100030000D03*
X158150000Y-100030000D03*
X158150000Y-96830000D03*
%TD*%
D43*
%TO.C,SW2*%
X259462269Y-86940137D03*
X258368286Y-80735848D03*
X255720000Y-87600000D03*
X254626017Y-81395711D03*
%TD*%
D44*
%TO.C,R1*%
X252766908Y-94562726D03*
X252450000Y-96360000D03*
%TD*%
D45*
%TO.C,D39*%
X214321626Y-123392205D03*
X216043611Y-124195180D03*
X214337382Y-125606308D03*
%TD*%
D46*
%TO.C,D18*%
X59383833Y-75882071D03*
X59251295Y-77777442D03*
X57322436Y-76690244D03*
%TD*%
D20*
%TO.C,C13*%
X224340000Y-76880000D03*
X224340000Y-78780000D03*
%TD*%
D47*
%TO.C,D31*%
X59260000Y-100830000D03*
X59392538Y-102725371D03*
X57331141Y-101917198D03*
%TD*%
D48*
%TO.C,D33*%
X198855185Y-108976526D03*
X199890000Y-110570000D03*
X197695251Y-110862541D03*
%TD*%
D49*
%TO.C,U2*%
X239300000Y-80695000D03*
X239300000Y-79425000D03*
X239300000Y-78155000D03*
X239300000Y-76885000D03*
X246500000Y-76885000D03*
X246500000Y-78155000D03*
X246500000Y-79425000D03*
X246500000Y-80695000D03*
%TD*%
D50*
%TO.C,D25*%
X58980000Y-83000000D03*
X58913691Y-84898843D03*
X56948064Y-83879623D03*
%TD*%
D51*
%TO.C,D21*%
X203252737Y-63057833D03*
X202031440Y-64513318D03*
X201110000Y-62500000D03*
%TD*%
D20*
%TO.C,C7*%
X210710000Y-95970000D03*
X210710000Y-97870000D03*
%TD*%
D52*
%TO.C,D17*%
X59675596Y-72327230D03*
X59510000Y-74220000D03*
X57600408Y-73099303D03*
%TD*%
D53*
%TO.C,U44*%
X149897500Y-66740000D03*
X149897500Y-67690000D03*
X149897500Y-68640000D03*
X147622500Y-68640000D03*
X147622500Y-67690000D03*
X147622500Y-66740000D03*
%TD*%
D54*
%TO.C,U3*%
X236439157Y-89502202D03*
X236156314Y-89785045D03*
X235873472Y-90067887D03*
X235590629Y-90350730D03*
X235307786Y-90633573D03*
X235024944Y-90916415D03*
X234742101Y-91199258D03*
X234459258Y-91482101D03*
X234176415Y-91764944D03*
X233893573Y-92047786D03*
X233610730Y-92330629D03*
X233327887Y-92613472D03*
X233045045Y-92896314D03*
X232762202Y-93179157D03*
D55*
X231577798Y-93179157D03*
X231294955Y-92896314D03*
X231012113Y-92613472D03*
X230729270Y-92330629D03*
X230446427Y-92047786D03*
X230163585Y-91764944D03*
X229880742Y-91482101D03*
X229597899Y-91199258D03*
X229315056Y-90916415D03*
X229032214Y-90633573D03*
X228749371Y-90350730D03*
X228466528Y-90067887D03*
X228183686Y-89785045D03*
X227900843Y-89502202D03*
D54*
X227900843Y-88317798D03*
X228183686Y-88034955D03*
X228466528Y-87752113D03*
X228749371Y-87469270D03*
X229032214Y-87186427D03*
X229315056Y-86903585D03*
X229597899Y-86620742D03*
X229880742Y-86337899D03*
X230163585Y-86055056D03*
X230446427Y-85772214D03*
X230729270Y-85489371D03*
X231012113Y-85206528D03*
X231294955Y-84923686D03*
X231577798Y-84640843D03*
D55*
X232762202Y-84640843D03*
X233045045Y-84923686D03*
X233327887Y-85206528D03*
X233610730Y-85489371D03*
X233893573Y-85772214D03*
X234176415Y-86055056D03*
X234459258Y-86337899D03*
X234742101Y-86620742D03*
X235024944Y-86903585D03*
X235307786Y-87186427D03*
X235590629Y-87469270D03*
X235873472Y-87752113D03*
X236156314Y-88034955D03*
X236439157Y-88317798D03*
D56*
X232170000Y-88910000D03*
%TD*%
D36*
%TO.C,ENC1*%
X45380000Y-77360000D03*
D37*
X40380000Y-77360000D03*
X42880000Y-77360000D03*
D57*
X37280000Y-69960000D03*
D38*
X48480000Y-69860000D03*
D37*
X40380000Y-62860000D03*
X45380000Y-62860000D03*
%TD*%
D58*
%TO.C,J0*%
X144760000Y-62140000D03*
X150540000Y-62140000D03*
D59*
X144400000Y-63585000D03*
X145200000Y-63585000D03*
D60*
X146400000Y-63585000D03*
X147400000Y-63585000D03*
X147900000Y-63585000D03*
X148900000Y-63585000D03*
D59*
X150100000Y-63585000D03*
X150900000Y-63585000D03*
X150900000Y-63585000D03*
X150100000Y-63585000D03*
D60*
X149400000Y-63585000D03*
X148400000Y-63585000D03*
X146900000Y-63585000D03*
X145900000Y-63585000D03*
D59*
X145200000Y-63585000D03*
X144400000Y-63585000D03*
D61*
X143330000Y-58490000D03*
D62*
X143330000Y-62670000D03*
D61*
X151970000Y-58490000D03*
D62*
X151970000Y-62670000D03*
%TD*%
D63*
%TO.C,D24*%
X58890000Y-86580000D03*
X58890000Y-88480000D03*
X56890000Y-87530000D03*
%TD*%
D64*
%TO.C,R6*%
X155642500Y-61920000D03*
X153817500Y-61920000D03*
%TD*%
D15*
%TO.C,RGB6*%
X132150000Y-100030000D03*
X132150000Y-96830000D03*
X137150000Y-96830000D03*
X137150000Y-100030000D03*
%TD*%
D65*
%TO.C,D23*%
X58900000Y-90150000D03*
X58933159Y-92049711D03*
X56916884Y-91134760D03*
%TD*%
M02*
